<svg preserveAspectRatio="xMidYMid meet" data-bbox="56.999 52.454 89.037 88.25" viewBox="56.999 52.454 89.037 88.25" height="200" width="200" xmlns="http://www.w3.org/2000/svg" data-type="color" role="presentation" aria-hidden="true" aria-label=""><defs><style>#comp-m6jp2aqb svg [data-color="1"] {fill: #FFFFFF;}</style></defs>
    <g>
        <path d="M145.537 118.403c-4.126-2.426-8.216-7.393-10.931-13.266-1.358-3.128-5.368-10.858-10.83-17.722-2.674-3.357-4.076-4.749-7.634-6.923-3.283-2.001-6.74-3.596-10.083-5.139-.61-.282-1.216-.561-1.818-.842a101.048 101.048 0 0 1-4.202-4.578c-1.544-1.769-2.564-2.938-4.149-3.994-2.328-1.55-4.984-3.217-8.352-5.24a310.031 310.031 0 0 1-3.092-5.321c-.766-1.356-1.492-2.285-2.549-2.418-1.125-.141-2.061.728-2.924 1.63a10.31 10.31 0 0 0-.615.811c-1.829-1.015-3.371-1.836-3.816-2.029-2.519-1.101-5.065-1.216-7.17-.324-1.928.818-3.377 2.407-4.193 4.598-.715 1.929-1.476 5.748.201 7.827 1.433 1.782 4.018 2.157 6.087 2.458l.274.041c.263.039.529.08.775.129l.044.009c.289.06.545.134.724.237 1.12.634 2.378 1.518 3.594 2.373.941.661 1.832 1.284 2.661 1.8.052.147.108.295.163.444-2.319-1.511-4.361-2.757-5.791-3.487-1.28-.646-2.173-.834-3.674-.775-2.76.105-6.175 1.671-7.364 4.461-.713 1.674-.902 4.411 2.243 7.945a.995.995 0 0 0 .182.161l.161.11a7.478 7.478 0 0 0-4.311 2.269 7.74 7.74 0 0 0-1.795 7.668c.446 1.393 1.163 2.374 2.48 3.386 2.398 1.829 4.165 2.802 5.94 3.414-2.448-.109-3.877.684-4.677 1.453-1.239 1.191-1.745 3.02-1.426 5.15.566 3.819 3.501 5.098 5.255 5.862a.789.789 0 0 0 .096.036c.443.142.915.26 1.4.369l.022.008c1.787.479 6.271 1.74 9.3 3.1 2.545 1.136 6.323 4.041 9.977 6.85 3.882 2.985 7.897 6.071 11.008 7.556 5.066 2.639 8.432 3.907 11.136 4.927 4.329 1.632 6.305 2.376 10.084 6.912a1.008 1.008 0 0 0 1.423.13 1.01 1.01 0 0 0 .13-1.423c-4.12-4.945-6.537-5.856-10.924-7.509-2.654-1-5.956-2.245-10.947-4.844-2.95-1.408-6.879-4.429-10.678-7.35-3.92-3.013-7.621-5.86-10.383-7.093-.43-.193-.887-.383-1.36-.57a203.51 203.51 0 0 0 6.091-.138c6.375-.432 11.106-2.786 11.285-5.606a2.56 2.56 0 0 0-.21-1.313c.289.017.57.026.841.026 2.531 0 4.281-.736 5.366-1.772 3.67 4.718 11.355 10.632 20.38 10.632.339 0 .682-.008 1.025-.025a1.01 1.01 0 0 0 .959-1.06 1.004 1.004 0 0 0-1.06-.959c-10.022.492-17.614-6.943-20.136-10.404 1.047-3.588-3.459-6.781-7.204-8.54a6.215 6.215 0 0 0 1.185-1.336c2.029-3.273-1.19-7.782-4.125-9.938a304.724 304.724 0 0 0-8.856-6.253 33.974 33.974 0 0 1-1.37-3.358.972.972 0 0 0-.069-.203c-2.455-7.285-1.168-12.662 1.146-15.47.834-.867 1.119-.986 1.175-.999.053.018.353.17 1.055 1.412 1.276 2.244 3.697 6.444 5.575 9.357l.069.108c.53.822.913 1.416 1.717 2.192 3.743 3.637 8.323 5.972 13.215 8.255.645.301 1.294.601 1.948.903 3.291 1.518 6.694 3.088 9.877 5.028 3.32 2.029 4.562 3.264 7.106 6.457 5.33 6.699 9.236 14.225 10.566 17.29 2.934 6.347 7.217 11.516 11.751 14.182a1.009 1.009 0 0 0 1.383-.359 1.01 1.01 0 0 0-.357-1.386zm-54.968-12.607c-.052 1.112-3.239 3.31-9.371 3.726-5.856.2-10.715.286-14.228-.481l-.002-.001h-.001a14.914 14.914 0 0 1-1.281-.335c-1.982-.867-3.646-1.798-4.015-4.287-.127-.848-.189-2.417.827-3.394.901-.867 2.499-1.115 4.624-.721 5.603 1.89 12.883 2.356 16.75 2.466 3.588.268 5.708 1.409 6.434 2.306.195.241.294.471.272.63a.684.684 0 0 0-.009.091zM70.441 99.15l.837.129c.601.092 1.244.191 1.944.305.757.122 1.669.309 2.662.549-1.804-.234-3.664-.552-5.443-.983zm19.724-5.452c3.613 1.39 8.357 4.416 7.644 6.81a1.001 1.001 0 0 0-.205.401c-.837 1.352-3.203 2.312-7.673 1.32-.045-.01-.089-.012-.133-.016-1.47-.754-3.419-1.263-5.622-1.445-3.553-1.581-7.983-2.754-10.632-3.179-.704-.115-1.353-.214-1.96-.307-4.326-.663-6.301-.966-10.522-4.186-.996-.766-1.463-1.393-1.783-2.394-.624-1.974-.113-4.143 1.333-5.662 1.468-1.542 3.587-2.091 5.816-1.506.1.026.2.032.298.028 5.06 3.288 9.108 5.427 15.732 8.78a.907.907 0 0 0 .101.044c2.467.927 4.488 1.395 6.153 1.395.489 0 .945-.043 1.374-.124.026.013.051.03.079.041zm1.859-3.595c-1.04 1.518-2.825 2.608-8.704.411-7.887-3.994-12.077-6.244-18.774-10.842-1.323-1.511-2.673-3.7-1.813-5.718.849-1.994 3.509-3.154 5.582-3.233 1.161-.047 1.714.069 2.681.557 1.904.972 4.949 2.904 8.291 5.163a.972.972 0 0 0 .194.131c2.952 2 6.12 4.245 8.929 6.304 1.935 1.421 4.971 4.993 3.614 7.227zM64.953 64.205c-.912-1.13-.619-3.861.12-5.855.616-1.656 1.684-2.846 3.087-3.441 1.577-.669 3.539-.562 5.533.3.388.23 3.065 1.982 1.881 5.913-1.15 3.818-4.13 4.778-4.86 4.959-.225-.04-.451-.075-.675-.108l-.273-.041c-1.727-.251-3.877-.564-4.813-1.727zm11.087 4.861c-.917-.644-1.857-1.304-2.764-1.878a8.818 8.818 0 0 0 2.673-2.353c.056 1.402.261 2.946.672 4.638l-.581-.407zm13.991-4.322-.07-.108-.099-.154a174.34 174.34 0 0 1 4.907 3.14c1.36.906 2.258 1.936 3.747 3.641l.65.742c-2.838-1.527-5.46-3.238-7.712-5.425-.638-.617-.917-1.051-1.423-1.836z" fill="#3F403E" data-color="1"></path>
    </g>
</svg>