<svg preserveAspectRatio="xMidYMid meet" data-bbox="30 20 140 160" viewBox="30 20 140 160" height="200" width="200" xmlns="http://www.w3.org/2000/svg" data-type="color" role="presentation" aria-hidden="true" aria-label=""><defs><style>#comp-m6jp05ul svg [data-color="1"] {fill: #FFFFFF;}</style></defs>
    <g>
        <path d="M124.763 124.235c-.051 0-.103-.004-.155-.007a1.686 1.686 0 0 1-1.538-1.827l4.425-49.123h-24.132a1.692 1.692 0 0 1-1.696-1.684c0-.93.761-1.684 1.696-1.684h25.986a1.69 1.69 0 0 1 1.689 1.834l-4.591 50.957a1.691 1.691 0 0 1-1.684 1.534z" fill="#3F4447" data-color="1"></path>
        <path d="M103.36 161.706H89.112c-2.822 0-5.172-2.103-5.463-4.889l-8.998-85.049a1.668 1.668 0 0 1 .427-1.303c.32-.354.776-.557 1.258-.557h27.024c.934 0 1.696.754 1.696 1.684 0 .93-.761 1.684-1.696 1.684H78.22l8.799 83.19a2.094 2.094 0 0 0 2.093 1.871h14.248c.934 0 1.696.754 1.696 1.684 0 .931-.762 1.685-1.696 1.685z" fill="#3F4447" data-color="1"></path>
        <path d="M128.195 86.094H77.694a1.692 1.692 0 0 1-1.696-1.684c0-.93.761-1.684 1.696-1.684h50.501c.934 0 1.696.754 1.696 1.684 0 .93-.762 1.684-1.696 1.684z" fill="#3F4447" data-color="1"></path>
        <path d="M88.645 78.31a1.692 1.692 0 0 1-1.696-1.684v-5.033c0-.93.761-1.684 1.696-1.684s1.696.754 1.696 1.684v5.033c0 .93-.761 1.684-1.696 1.684z" fill="#3F4447" data-color="1"></path>
        <path d="M102.944 78.31a1.692 1.692 0 0 1-1.696-1.684v-5.033c0-.93.761-1.684 1.696-1.684.934 0 1.696.754 1.696 1.684v5.033c0 .93-.761 1.684-1.696 1.684z" fill="#3F4447" data-color="1"></path>
        <path d="M117.247 78.31a1.692 1.692 0 0 1-1.696-1.684v-5.033c0-.93.761-1.684 1.696-1.684s1.696.754 1.696 1.684v5.033c0 .93-.761 1.684-1.696 1.684z" fill="#3F4447" data-color="1"></path>
        <path d="M113.3 180H89.517c-2.101 0-3.811-1.699-3.811-3.785v-16.193c0-.93.761-1.684 1.696-1.684.934 0 1.696.754 1.696 1.684v16.193c0 .23.188.417.419.417H113.3c.934 0 1.696.754 1.696 1.684S114.234 180 113.3 180z" fill="#3F4447" data-color="1"></path>
        <path d="M103.364 171.392H87.402a1.692 1.692 0 0 1-1.696-1.684c0-.93.761-1.684 1.696-1.684h15.962c.934 0 1.696.754 1.696 1.684 0 .93-.762 1.684-1.696 1.684z" fill="#3F4447" data-color="1"></path>
        <path d="M164.419 180h-50.917c-3.079 0-5.584-2.488-5.584-5.546v-29.313c0-2.099 1.722-3.807 3.833-3.807h54.416c2.112 0 3.833 1.708 3.833 3.807v29.313c0 3.058-2.505 5.546-5.581 5.546zm-52.668-35.298a.44.44 0 0 0-.441.438v29.313c0 1.2.982 2.178 2.193 2.178h50.917a2.186 2.186 0 0 0 2.189-2.178V145.14a.44.44 0 0 0-.441-.438h-54.417z" fill="#3F4447" data-color="1"></path>
        <path d="M163.22 144.702a1.692 1.692 0 0 1-1.696-1.684V131.67c0-.248-.188-.451-.416-.451h-44.299c-.228 0-.416.203-.416.451v11.348c0 .93-.761 1.684-1.696 1.684s-1.696-.754-1.696-1.684V131.67a3.818 3.818 0 0 1 3.807-3.82h44.299a3.817 3.817 0 0 1 3.807 3.82v11.348a1.688 1.688 0 0 1-1.694 1.684z" fill="#3F4447" data-color="1"></path>
        <path d="M101.679 152.93H96.36c-2.262 0-4.124-1.688-4.322-3.926l-4.823-53.175a4.291 4.291 0 0 1 1.118-3.292 4.363 4.363 0 0 1 3.204-1.405h23.713c1.218 0 2.384.512 3.204 1.405.82.89 1.229 2.09 1.118 3.29l-2.509 27.965c-.081.928-.912 1.589-1.839 1.527a1.688 1.688 0 0 1-1.538-1.827l2.509-27.967a.93.93 0 0 0-.243-.718.95.95 0 0 0-.703-.307H91.537a.951.951 0 0 0-.703.307.936.936 0 0 0-.243.718l4.823 53.177a.94.94 0 0 0 .945.859h5.319c.934 0 1.696.754 1.696 1.684a1.69 1.69 0 0 1-1.695 1.685z" fill="#3F4447" data-color="1"></path>
        <path d="M77.694 170.963H40.653c-5.283 0-9.583-4.269-9.583-9.518V85.826c0-13.075 7.92-24.6 20.178-29.361.872-.332 1.858.09 2.196.954a1.678 1.678 0 0 1-.96 2.181c-10.948 4.253-18.022 14.547-18.022 26.226v75.619c0 3.391 2.777 6.149 6.191 6.149h37.041c.934 0 1.696.754 1.696 1.684 0 .93-.762 1.685-1.696 1.685z" fill="#3F4447" data-color="1"></path>
        <path d="M84.091 66.398c-.434 0-.868-.164-1.199-.493a27.957 27.957 0 0 0-9.708-6.303 1.68 1.68 0 0 1-.968-2.178 1.695 1.695 0 0 1 2.196-.961 31.37 31.37 0 0 1 10.878 7.059 1.674 1.674 0 0 1 0 2.38 1.69 1.69 0 0 1-1.199.496z" fill="#3F4447" data-color="1"></path>
        <path d="M73.798 59.717H51.865a1.692 1.692 0 0 1-1.696-1.684v-12.6c0-2.653 2.174-4.812 4.845-4.812h15.635c2.671 0 4.845 2.159 4.845 4.812v12.6c0 .929-.762 1.684-1.696 1.684zm-20.237-3.369h18.541V45.433c0-.796-.651-1.443-1.453-1.443H55.014c-.802 0-1.453.647-1.453 1.443v10.915z" fill="#3F4447" data-color="1"></path>
        <path d="M62.832 43.99a1.692 1.692 0 0 1-1.696-1.684V28.221c0-.93.761-1.684 1.696-1.684s1.696.754 1.696 1.684v14.085c0 .929-.762 1.684-1.696 1.684z" fill="#3F4447" data-color="1"></path>
        <path d="M37.493 35.725c-.497 0-.986-.216-1.321-.63a1.673 1.673 0 0 1 .261-2.368l7.302-5.82a1.696 1.696 0 0 1 1.059-.371h31.424c.934 0 1.696.754 1.696 1.684 0 .93-.761 1.684-1.696 1.684H45.391l-6.839 5.449c-.312.25-.688.372-1.059.372z" fill="#3F4447" data-color="1"></path>
        <path d="M70.06 23.369H49.699c-.934 0-1.696-.754-1.696-1.684S48.764 20 49.699 20H70.06c.934 0 1.696.754 1.696 1.684s-.761 1.685-1.696 1.685z" fill="#3F4447" data-color="1"></path>
        <path d="M108.102 180H37.221c-3.881 0-7.118-3.045-7.218-6.787a8.205 8.205 0 0 1 .21-2.066c.71-3.159 3.035-4.921 3.999-5.532a1.703 1.703 0 0 1 2.343.515 1.68 1.68 0 0 1-.519 2.324c-.611.387-2.078 1.494-2.516 3.438a4.825 4.825 0 0 0-.125 1.229c.052 1.936 1.766 3.509 3.826 3.509h70.881c.934 0 1.696.754 1.696 1.684s-.762 1.686-1.696 1.686z" fill="#3F4447" data-color="1"></path>
    </g>
</svg>