<svg preserveAspectRatio="xMidYMid meet" data-bbox="20 23.501 160 152.999" viewBox="20 23.501 160 152.999" height="200" width="200" xmlns="http://www.w3.org/2000/svg" data-type="color" role="presentation" aria-hidden="true" aria-label=""><defs><style>#comp-m6jnwaj6 svg [data-color="1"] {fill: #FFFFFF;}</style></defs>
    <g>
        <path d="M119.834 82.93a2.364 2.364 0 0 0 2.897 1.676 2.37 2.37 0 0 0 1.672-2.904l-15.09-56.442a2.36 2.36 0 0 0-2.897-1.677l-10.684 2.868a2.361 2.361 0 0 0-1.437 1.105 2.375 2.375 0 0 0-.236 1.799l19.95 74.633a2.368 2.368 0 0 0 2.897 1.677 2.37 2.37 0 0 0 1.672-2.904L99.24 30.418l6.115-1.641 14.479 54.153z" fill="#1D1D1B" data-color="1"></path>
        <path d="M154.324 134.406a18.797 18.797 0 0 0-7.607 4.091 2.375 2.375 0 0 0-.211 3.347 2.363 2.363 0 0 0 3.339.212 14.134 14.134 0 0 1 5.707-3.071c8.151-2.184 16.719 3.276 19.1 12.177 2.376 8.901-2.317 17.923-10.465 20.111-8.144 2.186-16.716-3.272-19.095-12.172l-9.614-35.97 25.064-93.776a2.375 2.375 0 0 0-1.673-2.904l-10.684-2.868a2.362 2.362 0 0 0-2.897 1.677l-35.78 133.841c-2.378 8.9-10.944 14.361-19.094 12.172-3.915-1.052-7.162-3.7-9.144-7.457-2.012-3.816-2.481-8.31-1.32-12.654 1.161-4.346 3.809-8.004 7.457-10.3 3.589-2.263 7.724-2.931 11.637-1.877a14.133 14.133 0 0 1 5.714 3.072 2.364 2.364 0 0 0 3.34-.214 2.377 2.377 0 0 0-.214-3.348 18.834 18.834 0 0 0-7.613-4.091c-5.202-1.394-10.665-.528-15.382 2.441-4.661 2.937-8.038 7.585-9.509 13.089-1.472 5.502-.865 11.22 1.707 16.097 2.604 4.938 6.902 8.425 12.103 9.822 1.623.436 3.255.645 4.872.644 9.006 0 17.428-6.481 20.017-16.169l35.167-131.55 6.115 1.641-24.616 92.099a2.385 2.385 0 0 0 0 1.227l9.777 36.583c3.054 11.425 14.222 18.389 24.89 15.526 10.667-2.864 16.862-14.49 13.81-25.919-3.057-11.427-14.217-18.396-24.898-15.529z" fill="#1D1D1B" data-color="1"></path>
        <path d="M96.324 149.513a2.358 2.358 0 0 0 2.896-1.678 2.37 2.37 0 0 0-1.674-2.903c-5.142-1.38-10.527 1.94-11.986 7.402-.699 2.615-.409 5.337.819 7.664 1.258 2.386 3.343 4.075 5.868 4.752a2.367 2.367 0 0 0 2.897-1.677 2.37 2.37 0 0 0-1.672-2.904c-1.241-.333-2.273-1.181-2.91-2.388-.668-1.267-.821-2.765-.432-4.221.784-2.938 3.563-4.746 6.194-4.047z" fill="#1D1D1B" data-color="1"></path>
        <path d="M161.131 160.17a2.371 2.371 0 0 0-1.674 2.903 2.367 2.367 0 0 0 2.896 1.678c2.527-.677 4.611-2.366 5.869-4.752 1.227-2.327 1.517-5.049.818-7.664-1.458-5.46-6.822-8.784-11.984-7.402a2.37 2.37 0 0 0-1.674 2.903 2.36 2.36 0 0 0 2.896 1.678c2.624-.697 5.407 1.109 6.192 4.048.389 1.456.236 2.955-.431 4.221-.635 1.206-1.668 2.053-2.908 2.387z" fill="#1D1D1B" data-color="1"></path>
        <path d="M72.917 109.631H53.399c-5.859 0-10.627 4.779-10.627 10.653v11.081c.002 6.838 4.658 13.836 7.743 18.476a14.031 14.031 0 0 1 2.354 7.81c0 7.778-6.311 14.106-14.067 14.106-7.759 0-14.071-6.328-14.071-14.106V45.843c0-8.963 7.276-16.256 16.22-16.256h31.965a2.369 2.369 0 0 0 2.366-2.372 2.369 2.369 0 0 0-2.366-2.372H40.952C29.399 24.844 20 34.264 20 45.843v111.808c0 10.394 8.435 18.849 18.803 18.849 10.366 0 18.798-8.455 18.798-18.849 0-3.741-1.089-7.353-3.155-10.451-2.764-4.155-6.941-10.434-6.943-15.837v-11.08c0-3.258 2.644-5.91 5.895-5.91h19.518a2.369 2.369 0 0 0 2.366-2.371 2.367 2.367 0 0 0-2.365-2.371z" fill="#1D1D1B" data-color="1"></path>
        <path d="M72.917 97.535H40.584a2.369 2.369 0 0 0-2.366 2.372 2.368 2.368 0 0 0 2.366 2.371h32.333a2.369 2.369 0 0 0 2.366-2.371 2.369 2.369 0 0 0-2.366-2.372z" fill="#1D1D1B" data-color="1"></path>
        <path d="M72.917 85.422H40.584a2.369 2.369 0 0 0-2.366 2.372 2.368 2.368 0 0 0 2.366 2.371h32.333a2.369 2.369 0 0 0 2.366-2.371 2.369 2.369 0 0 0-2.366-2.372z" fill="#1D1D1B" data-color="1"></path>
        <path d="M72.917 73.31H40.584a2.369 2.369 0 0 0-2.366 2.372 2.369 2.369 0 0 0 2.366 2.372h32.333a2.369 2.369 0 0 0 2.366-2.372 2.369 2.369 0 0 0-2.366-2.372z" fill="#1D1D1B" data-color="1"></path>
        <path d="M72.917 61.18H40.584a2.369 2.369 0 0 0-2.366 2.372 2.369 2.369 0 0 0 2.366 2.372h32.333a2.369 2.369 0 0 0 2.366-2.372 2.369 2.369 0 0 0-2.366-2.372z" fill="#1D1D1B" data-color="1"></path>
        <path d="M72.917 49.066H40.584a2.369 2.369 0 0 0-2.366 2.372 2.368 2.368 0 0 0 2.366 2.371h32.333a2.369 2.369 0 0 0 2.366-2.371 2.369 2.369 0 0 0-2.366-2.372z" fill="#1D1D1B" data-color="1"></path>
        <path d="M72.917 36.953H40.584a2.369 2.369 0 0 0-2.366 2.372 2.368 2.368 0 0 0 2.366 2.371h32.333a2.369 2.369 0 0 0 2.366-2.371 2.368 2.368 0 0 0-2.366-2.372z" fill="#1D1D1B" data-color="1"></path>
    </g>
</svg>