<svg preserveAspectRatio="xMidYMid meet" data-bbox="10 9.999 180 180.001" viewBox="10 9.999 180 180.001" height="200" width="200" xmlns="http://www.w3.org/2000/svg" data-type="color" role="presentation" aria-hidden="true" aria-label=""><defs><style>#comp-m6jouy6p1 svg [data-color="1"] {fill: #FFFFFF;}</style></defs>
    <g>
        <path d="M188.166 53.033c-2.34-2.338-6.21-2.338-8.641 0l-6.57 6.565-9.451-9.443c-2.34-2.338-6.21-2.338-8.641 0L113.64 91.344c-1.8 1.799-2.25 4.587-1.26 6.835l-37.802 37.772c-.99-2.428-2.34-4.587-4.23-6.475-1.71-1.709-3.69-3.058-5.85-3.957L102.3 87.747c.63.18 1.26.27 1.89.27 1.53 0 3.15-.63 4.32-1.799l41.223-41.189c1.17-1.169 1.8-2.698 1.8-4.317s-.63-3.148-1.8-4.317l-9.451-9.443 6.57-6.565c2.34-2.338 2.34-6.205 0-8.634-2.34-2.338-6.21-2.338-8.641 0L31.106 118.773c-12.241 12.231-13.591 31.386-3.96 45.146l-15.391 15.648c-2.34 2.338-2.34 6.205 0 8.634 1.17 1.169 2.7 1.799 4.32 1.799s3.15-.63 4.32-1.799l15.571-15.558a35.315 35.315 0 0 0 20.251 6.385c9.001 0 18.001-3.417 24.932-10.252l107.107-107.02c2.34-2.518 2.34-6.385-.09-8.723zm-28.892 10.072l5.13 5.126-21.421 21.404-11.161 11.152-5.13-5.126 32.582-32.556zM56.848 136.04c1.8 0 3.51.719 4.86 1.979 1.35 1.349 2.07 3.058 2.07 4.856 0 1.889-.72 3.597-2.07 4.856-2.7 2.698-7.11 2.698-9.811 0-2.7-2.698-2.7-7.105 0-9.803 1.441-1.168 3.241-1.888 4.951-1.888zm80.015-95.328l-32.582 32.556-5.13-5.126 32.582-32.556 5.13 5.126zM33.086 143.685c0-6.115 2.43-11.961 6.75-16.278L90.51 76.775l2.79 2.788-49.953 49.913c-5.94 5.936-7.11 14.839-3.6 22.033l-3.69 3.687c-1.891-3.507-2.971-7.374-2.971-11.511zm37.803 13.22c11.701-11.242 49.953-49.913 49.953-49.913l2.34 2.338-50.673 50.632a23.033 23.033 0 0 1-16.291 6.745c-4.05 0-8.01-1.079-11.431-3.058l3.69-3.687c2.7 1.349 5.58 1.889 8.461 1.979 6.84.27 11.071-2.248 13.951-5.036z" fill="#444235" data-color="1"></path>
    </g>
</svg>