<svg preserveAspectRatio="xMidYMid meet" data-bbox="20 20 160 160" viewBox="20 20 160 160" height="200" width="200" xmlns="http://www.w3.org/2000/svg" data-type="color" role="presentation" aria-hidden="true" aria-label=""><defs><style>#comp-m6joxqy1 svg [data-color="1"] {fill: #FFFFFF;}</style></defs>
    <g>
        <path d="M148.976 114.015a2.966 2.966 0 0 1-2.097-.868L86.8 53.102a2.962 2.962 0 0 1-.663-3.181c5.442-13.815 14.858-23.244 29.634-29.674a2.966 2.966 0 0 1 3.281.622l60.08 60.045a2.963 2.963 0 0 1 .706 3.062c-4.605 13.336-17.51 26.198-30.016 29.916a2.96 2.96 0 0 1-.846.123zM92.395 50.311l57.381 57.348c9.642-3.599 19.588-13.582 23.81-23.905L116.309 26.51c-11.562 5.432-19.229 13.062-23.914 23.801z" fill="#324C5E" data-color="1"></path>
        <path d="M160.742 89.279a2.956 2.956 0 0 1-2.097-.868l-47.001-46.974a2.962 2.962 0 0 1 0-4.191 2.968 2.968 0 0 1 4.194 0l47.001 46.974a2.962 2.962 0 0 1-2.097 5.059z" fill="#324C5E" data-color="1"></path>
        <path d="M152.284 97.732a2.956 2.956 0 0 1-2.097-.868L103.186 49.89a2.962 2.962 0 0 1 0-4.191 2.968 2.968 0 0 1 4.194 0l47.001 46.974a2.962 2.962 0 0 1-2.097 5.059z" fill="#324C5E" data-color="1"></path>
        <path d="M122.235 98.541c-4.79 0-10.09-2.209-14.304-6.42-3.375-3.373-5.598-7.543-6.258-11.742-.715-4.546.447-8.604 3.272-11.428a2.968 2.968 0 0 1 4.194 0 2.962 2.962 0 0 1 0 4.191c-1.449 1.448-2.02 3.691-1.607 6.315.467 2.97 2.098 5.979 4.593 8.472 4.819 4.817 11.595 6.184 14.796 2.985a2.967 2.967 0 0 1 4.194 0 2.962 2.962 0 0 1 0 4.191c-2.316 2.315-5.469 3.436-8.88 3.436z" fill="#324C5E" data-color="1"></path>
        <path d="M35.316 180c-1.081 0-2.179-.137-3.279-.417-5.544-1.408-10.214-6.076-11.621-11.616-1.213-4.776.255-9.515 4.029-13l78.19-72.239a2.966 2.966 0 0 1 4.191.165 2.963 2.963 0 0 1-.164 4.188l-78.19 72.239c-2.766 2.555-2.781 5.32-2.306 7.189.86 3.386 3.944 6.469 7.333 7.329 1.872.475 4.638.461 7.196-2.303l72.28-78.145a2.966 2.966 0 0 1 4.19-.165 2.963 2.963 0 0 1 .165 4.188l-72.281 78.145c-2.687 2.905-6.116 4.442-9.733 4.442z" fill="#324C5E" data-color="1"></path>
    </g>
</svg>