<?xml version="1.0" encoding="iso-8859-1"?>
<!-- Uploaded to: SVG Repo, www.svgrepo.com, Generator: SVG Repo Mixer Tools -->
<svg version="1.1" id="Layer_1" xmlns="http://www.w3.org/2000/svg" xmlns:xlink="http://www.w3.org/1999/xlink" 
	 viewBox="0 0 497 497" xml:space="preserve">
<path style="fill:#4E7D7F;" d="M278.2,246.8c-8,8-20,8-28,0l0,0c-8-8-8-20,0-28l68-68c8-8,20-8,28,0l0,0c8,8,8,20,0,28L278.2,246.8z
	"/>
<path style="fill:#EF1870;" d="M59.8,491.6c-7.2,7.2-18.4,7.2-24.8,0L5.4,462c-7.2-7.2-7.2-18.4,0-24.8l236-236
	c7.2-7.2,18.4-7.2,24.8,0l29.6,29.6c7.2,7.2,7.2,18.4,0,24.8L59.8,491.6z"/>
<path style="fill:#C90D59;" d="M267,201.2l29.6,29.6c7.2,7.2,7.2,18.4,0,24.8l-236.8,236c-7.2,7.2-18.4,7.2-24.8,0L5.4,462"/>
<path style="fill:#6A9BA0;" d="M435,241.2c-8,8-20,8-28,0L255.8,90c-8-8-8-20,0-28l56-56c8-8,20-8,28,0L491,157.2c8,8,8,20,0,28
	L435,241.2z"/>
<rect x="268.532" y="101.313" transform="matrix(-0.7071 -0.7071 0.7071 -0.7071 560.8596 471.7414)" style="fill:#B6E0E0;" width="219.198" height="36.8"/>
<rect x="272.044" y="102.39" transform="matrix(-0.7071 -0.7071 0.7071 -0.7071 569.2051 468.5525)" style="fill:#9BCCCE;" width="219.198" height="28"/>
<polyline style="fill:#7DB5B5;" points="313.4,29.2 468.6,184.4 448.6,204.4 "/>
<path style="fill:#6ED62B;" d="M430.2,226.8c-4.8,4.8-12,4.8-16.8,0L271,85.2c-4.8-4.8-4.8-12,0-16.8l0,0c4.8-4.8,12-4.8,16.8,0
	l142.4,142.4C434.2,214.8,434.2,222.8,430.2,226.8L430.2,226.8z"/>
<path style="fill:#5BC914;" d="M430.2,226.8L430.2,226.8c-4.8,4.8-12,4.8-16.8,0L271,85.2c-4.8-4.8-4.8-12,0-16.8l0,0"/>
<rect x="292.033" y="76.963" transform="matrix(-0.7071 -0.7072 0.7072 -0.7071 618.184 446.814)" style="fill:#B6E0E0;" width="219.213" height="36.802"/>
<rect x="295.029" y="78.566" transform="matrix(-0.7071 -0.7071 0.7071 -0.7071 625.2897 444.1355)" style="fill:#9BCCCE;" width="219.198" height="28"/>
<polyline style="fill:#7DB5B5;" points="337.4,5.2 492.6,160.4 472.6,180.4 "/>
<g>
	<circle style="fill:#EF1870;" cx="207" cy="290" r="8"/>
	<path style="fill:#EF1870;" d="M175,334c-3.2,3.2-8,3.2-11.2,0s-3.2-8,0-11.2s8-3.2,11.2,0C177.4,325.2,177.4,330.8,175,334z"/>
	<path style="fill:#EF1870;" d="M136.6,372.4c-3.2,3.2-8,3.2-11.2,0s-3.2-8,0-11.2s8-3.2,11.2,0C139,363.6,139,369.2,136.6,372.4z"
		/>
</g>
</svg>