<?xml version="1.0" encoding="iso-8859-1"?>
<!-- Uploaded to: SVG Repo, www.svgrepo.com, Generator: SVG Repo Mixer Tools -->
<svg height="800px" width="800px" version="1.1" id="Layer_1" xmlns="http://www.w3.org/2000/svg" xmlns:xlink="http://www.w3.org/1999/xlink" 
	 viewBox="0 0 126.761 126.761" xml:space="preserve">
<g>
	<path style="fill:#65BBCF;" d="M104.44,79.26c0,0-8.137-3.616-8.438-11.452C95.7,59.972,82.44,42.794,75.509,38.575
		C68.577,34.356,42.057,0,42.057,0S30.303,2.713,31.809,7.535c1.507,4.82,31.644,39.177,34.357,40.684
		c2.712,1.506,2.411,2.109,5.425,0s4.821-2.109,6.328,0.604c1.507,2.711,15.671,28.026,21.699,30.437
		C105.645,81.671,104.44,79.26,104.44,79.26z"/>
	<path style="fill:#E94C5B;" d="M26.505,112.4c16.482-11.158,58.123-39.919,67.458-51.907c1.016-1.304,2.979-1.308,3.983,0.005l0,0
		c0.978,1.28,0.931,3.066-0.12,4.288c-8.953,10.419-49.257,56.251-70.175,61.843c-1.87,0.498-3.818-0.454-4.6-2.224l0,0
		C21.151,120.095,22.603,115.041,26.505,112.4z"/>
	<circle style="fill:#FFFFFF;" cx="27.289" cy="119.869" r="1.733"/>
	<circle style="fill:#FFFFFF;" cx="92.687" cy="65.998" r="1.733"/>
</g>
</svg>