<?xml version="1.0" encoding="iso-8859-1"?>
<!-- Uploaded to: SVG Repo, www.svgrepo.com, Generator: SVG Repo Mixer Tools -->
<svg fill="#000000" height="800px" width="800px" version="1.1" id="Layer_1" xmlns="http://www.w3.org/2000/svg" xmlns:xlink="http://www.w3.org/1999/xlink" 
	 viewBox="0 0 512 512" xml:space="preserve">
<g>
	<g>
		<path d="M367.808,240.512c-37.163-31.232-58.475-60.565-58.475-80.512c0-23.019,5.568-37.077,10.944-50.667
			c5.12-12.885,10.389-26.24,10.389-45.333c0-43.669-23.723-64-74.667-64s-74.667,20.331-74.667,64
			c0,19.093,5.291,32.448,10.389,45.333c5.376,13.589,10.944,27.648,10.944,50.667c0,19.947-21.312,49.28-58.475,80.512
			c-17.067,14.379-26.859,35.264-26.859,57.344v203.477c0,5.888,4.779,10.667,10.667,10.667s10.667-4.779,10.667-10.667v-160H160
			v160c0,5.888,4.779,10.667,10.667,10.667s10.667-4.779,10.667-10.667v-160h21.333v160c0,5.888,4.779,10.667,10.667,10.667
			S224,507.221,224,501.333v-160h21.333v160c0,5.888,4.779,10.667,10.667,10.667s10.667-4.779,10.667-10.667v-160H288v160
			c0,5.888,4.779,10.667,10.667,10.667s10.667-4.779,10.667-10.667v-160h21.333v160c0,5.888,4.779,10.667,10.667,10.667
			c5.888,0,10.667-4.779,10.667-10.667v-160h21.333v160c0,5.888,4.779,10.667,10.667,10.667c5.888,0,10.667-4.779,10.667-10.667
			V297.877C394.667,275.797,384.875,254.891,367.808,240.512z"/>
	</g>
</g>
</svg>