<?xml version="1.0" encoding="iso-8859-1"?>
<!-- Uploaded to: SVG Repo, www.svgrepo.com, Generator: SVG Repo Mixer Tools -->
<svg version="1.1" id="Layer_1" xmlns="http://www.w3.org/2000/svg" xmlns:xlink="http://www.w3.org/1999/xlink" 
	 viewBox="0 0 512 512" xml:space="preserve">
<rect x="346.41" y="48.155" transform="matrix(-0.7071 0.7071 -0.7071 -0.7071 777.8393 -129.7765)" style="fill:#F9545B;" width="138.774" height="96.104"/>
<path style="fill:#FFD37D;" d="M417.547,270.085l-230.87,230.872c-14.724,14.724-38.597,14.724-53.321,0L11.043,378.646
	c-14.724-14.724-14.724-38.597,0-53.321L241.915,94.453c35.079-35.079,72.596-35.079,107.675,0l67.958,67.958
	C452.626,197.489,452.626,235.007,417.547,270.085z"/>
<path style="fill:#FFFFFF;" d="M400.707,253.248L169.829,484.115c-5.407,5.419-14.219,5.419-19.638,0L27.886,361.81
	c-5.419-5.419-5.419-14.231,0-19.638l88.924-88.924L400.707,253.248L400.707,253.248z"/>
<g>
	<path style="fill:#FC7576;" d="M491.67,90.803l-70.474-70.474c-4.65-4.65-4.65-12.191,0-16.842s12.191-4.65,16.842,0l70.474,70.474
		c4.65,4.65,4.65,12.191,0,16.842C503.861,95.453,496.321,95.453,491.67,90.803z"/>
	<circle style="fill:#FC7576;" cx="291.591" cy="220.399" r="65.845"/>
</g>
</svg>